<?xml version="1.0" standalone="no"?>
<!DOCTYPE svg PUBLIC "-//W3C//DTD SVG 20010904//EN"
 "http://www.w3.org/TR/2001/REC-SVG-20010904/DTD/svg10.dtd">
<svg version="1.0" xmlns="http://www.w3.org/2000/svg"
 width="460.000000pt" height="460.000000pt" viewBox="0 0 460.000000 460.000000"
 preserveAspectRatio="xMidYMid meet">
<metadata>
Created by potrace 1.14, written by Peter Selinger 2001-2017
</metadata>
<g transform="translate(0.000000,460.000000) scale(0.100000,-0.100000)"
fill="#000000" stroke="none">
<path d="M0 2300 l0 -2300 695 0 c526 0 695 3 695 12 0 19 176 361 206 399 6
8 16 29 24 47 7 17 15 32 19 32 3 0 19 26 36 58 16 31 39 71 51 87 11 17 24
37 28 45 3 8 17 33 31 55 13 22 30 51 37 65 7 14 22 39 35 55 21 29 93 168 93
180 0 4 -4 3 -10 0 -6 -4 -7 1 -3 11 5 13 3 15 -7 9 -10 -6 -12 -4 -7 8 3 10
3 17 -1 17 -9 0 -38 70 -35 82 2 4 -2 8 -7 8 -6 0 -10 5 -10 11 0 8 5 8 15 -1
8 -7 15 -16 15 -21 0 -13 62 -109 71 -109 5 0 16 14 25 32 9 17 32 54 51 81
19 26 37 56 41 65 4 9 34 58 66 107 61 92 125 191 211 325 26 41 87 133 134
204 185 276 183 273 190 351 l6 70 5 -54 5 -55 98 145 97 146 0 250 c0 277 -6
313 -56 313 -31 0 -114 -37 -119 -53 -2 -7 -8 -74 -14 -151 -5 -76 -12 -141
-15 -144 -13 -13 -19 12 -20 89 -1 91 -16 114 -36 55 -6 -20 -16 -36 -22 -36
-6 0 -8 -9 -5 -19 3 -15 0 -19 -14 -16 -12 3 -16 -1 -12 -11 3 -8 0 -14 -6
-14 -6 0 -11 -11 -11 -24 0 -13 -7 -27 -16 -30 -24 -9 -30 2 -16 24 7 11 12
28 12 38 0 10 13 33 30 52 16 19 29 41 30 48 0 26 142 220 205 280 36 34 65
67 65 72 0 17 -46 11 -73 -10 -14 -11 -29 -20 -34 -20 -29 0 -233 -186 -233
-212 0 -5 -7 -8 -16 -8 -9 0 -14 -6 -11 -13 6 -15 -68 -117 -84 -117 -6 0 -21
24 -35 53 -38 81 -79 149 -89 150 -6 0 -39 -36 -74 -79 -35 -43 -80 -99 -100
-123 -20 -24 -40 -51 -45 -60 -5 -9 -18 -24 -27 -35 -10 -10 -21 -32 -24 -47
-4 -16 -11 -29 -16 -29 -18 0 -157 -176 -255 -322 -25 -38 -49 -68 -54 -68 -6
0 -10 -5 -10 -11 0 -6 -15 -32 -32 -57 -43 -61 -44 -62 -71 -97 -44 -58 -117
-172 -117 -183 0 -19 86 -177 141 -260 16 -24 29 -46 29 -50 0 -4 16 -33 35
-64 19 -33 30 -60 24 -63 -5 -4 -9 -3 -8 2 4 16 -13 43 -24 36 -5 -3 -7 -1 -4
4 4 6 0 16 -8 23 -16 14 -67 -33 -225 -210 -215 -242 -453 -465 -525 -496 -34
-14 -39 -14 -57 3 -15 13 -18 25 -13 50 5 29 34 106 54 143 4 8 34 65 66 125
31 61 62 116 67 123 6 7 18 25 27 41 50 90 97 167 113 183 10 10 18 22 18 28
0 5 11 26 25 47 14 21 31 46 38 57 6 10 24 36 40 57 15 21 27 41 27 43 0 5 85
135 100 153 13 16 13 63 0 63 -5 0 -10 7 -10 16 0 8 -4 12 -10 9 -6 -4 -7 1
-3 11 4 12 3 15 -5 10 -7 -4 -12 -1 -12 9 0 10 -5 13 -12 9 -8 -5 -9 0 -5 15
3 14 0 24 -9 28 -8 3 -14 11 -14 19 0 8 -4 14 -10 14 -5 0 -10 6 -10 13 0 7
-9 18 -20 25 -11 7 -20 18 -20 26 0 7 -9 21 -20 31 -11 10 -17 22 -14 26 3 5
1 9 -4 9 -6 0 -34 33 -63 73 -29 39 -56 76 -60 81 -10 11 -35 -9 -172 -136
-135 -127 -116 -109 -217 -198 -47 -41 -103 -91 -124 -112 -22 -21 -43 -38
-47 -38 -4 0 -14 -6 -21 -13 -41 -39 -99 -77 -117 -77 -32 0 -26 28 22 99 23
35 47 71 52 80 6 9 16 20 22 24 7 4 13 13 13 19 0 5 21 36 47 67 27 31 59 72
72 91 14 19 42 55 62 80 177 211 300 380 259 355 -6 -3 -10 3 -10 13 0 11 -7
25 -15 32 -8 7 -15 23 -15 36 0 25 -19 75 -33 85 -7 5 -14 32 -19 76 -1 7 -5
10 -10 7 -4 -3 -8 5 -8 18 0 18 -2 20 -10 8 -8 -12 -10 -11 -10 6 0 11 -6 26
-12 33 -11 11 -10 12 0 6 11 -6 12 -3 3 13 -6 12 -16 24 -21 27 -6 3 -10 15
-10 26 0 11 -5 17 -10 14 -6 -3 -10 3 -10 13 0 11 -7 25 -15 32 -8 7 -15 19
-15 27 0 8 -5 11 -12 7 -6 -4 -8 -3 -4 4 3 6 1 16 -6 24 -7 7 -19 27 -27 43
-7 17 -17 37 -21 46 -5 9 -12 34 -16 55 -3 22 -11 47 -16 57 -19 36 1 15 28
-30 16 -27 34 -57 41 -68 7 -11 22 -39 35 -62 12 -24 26 -43 30 -43 4 0 8 -5
8 -10 0 -9 40 -81 107 -195 6 -11 19 -33 27 -50 9 -16 25 -43 35 -60 11 -16
30 -49 42 -73 40 -76 18 -93 247 192 40 50 87 109 105 130 115 141 147 181
147 188 0 4 5 8 11 8 6 0 9 -4 7 -9 -3 -9 -60 -80 -90 -112 -10 -11 -18 -23
-18 -28 0 -5 -4 -11 -8 -13 -8 -3 -185 -222 -242 -298 -14 -19 -42 -52 -62
-74 -21 -23 -38 -51 -38 -62 0 -12 21 -59 48 -104 26 -45 54 -94 62 -108 8
-15 24 -43 36 -62 12 -19 35 -60 52 -90 67 -124 140 -254 180 -319 l20 -33 18
28 c10 16 21 31 24 34 15 15 70 100 70 109 0 6 4 11 9 11 9 0 90 112 118 162
6 11 15 23 20 27 5 3 24 29 43 56 18 28 43 62 54 76 12 15 30 39 41 55 11 15
30 40 42 55 13 15 23 32 23 37 0 6 6 15 13 19 18 12 76 98 91 135 7 18 14 82
15 142 l3 109 -32 28 c-17 16 -37 29 -44 29 -21 0 -46 35 -46 65 0 20 12 39
40 67 23 21 47 38 54 38 8 0 19 7 26 15 16 19 70 19 113 1 31 -12 137 -120
137 -138 0 -22 24 -1 77 64 32 40 84 104 115 142 32 38 58 73 58 78 0 4 -236
8 -525 8 -655 -1 -1384 10 -1391 22 -3 4 8 8 25 8 20 0 36 8 51 28 l22 27 221
2 c122 1 231 4 242 7 11 2 32 5 46 5 14 1 42 12 62 25 l35 24 -4 -26 c-3 -18
-1 -22 4 -14 11 17 197 64 226 57 11 -3 54 -7 95 -8 l74 -2 48 54 c27 30 49
61 49 68 0 7 4 13 9 13 4 0 27 28 51 63 24 34 48 67 54 72 6 6 19 21 28 35 10
14 35 50 58 80 22 30 52 73 67 95 14 22 29 42 32 45 9 7 51 68 51 74 0 2 16
32 36 67 19 35 39 79 44 98 9 35 9 35 5 -9 -4 -47 -48 -140 -93 -200 -15 -19
-34 -47 -42 -61 -26 -45 -75 -121 -85 -133 -24 -26 -75 -94 -75 -99 0 -7 -99
-139 -109 -147 -13 -9 -71 -101 -71 -111 0 -6 6 -7 12 -3 19 12 43 12 111 -1
37 -6 80 -8 107 -3 42 8 139 17 186 18 15 0 24 8 28 25 10 38 -3 75 -25 75
-15 0 -19 7 -19 35 0 19 5 35 10 35 6 0 10 -4 10 -10 0 -5 5 -10 10 -10 6 0
10 11 10 25 0 31 44 75 75 75 13 0 25 6 28 13 4 10 7 10 18 0 7 -7 23 -13 36
-13 17 0 23 6 24 23 0 12 3 16 6 10 8 -20 40 -15 57 9 13 18 16 19 16 5 0 -22
16 -22 24 0 5 11 1 22 -10 30 -16 11 -12 13 24 13 23 0 42 -4 42 -10 0 -5 7
-10 15 -10 8 0 15 5 15 12 0 6 3 9 6 5 3 -3 17 -1 31 4 21 8 24 7 20 -5 -4
-10 -1 -13 9 -9 7 3 14 9 14 15 0 5 5 6 10 3 6 -4 8 -11 5 -16 -9 -13 1 -11
17 4 7 7 29 24 48 37 19 13 67 49 105 80 162 131 231 164 254 122 10 -18 -13
-72 -67 -162 -49 -80 -48 -77 -23 -56 13 12 21 14 21 7 0 -7 6 -11 12 -8 7 2
13 10 13 18 0 24 32 22 40 -3 l8 -23 4 23 c5 23 20 26 121 22 42 -2 43 -1 36
27 -4 15 -4 25 0 22 13 -12 97 20 116 43 26 31 25 43 -9 67 -34 25 -61 27 -61
6 0 -18 -31 -20 -49 -2 -11 10 -13 9 -7 -1 5 -8 -5 -6 -27 5 -22 11 -30 21
-23 25 7 5 6 8 -5 8 -36 0 -54 117 -24 156 19 25 19 64 0 64 -19 0 -19 14 1
34 9 9 32 16 55 16 22 0 39 5 39 11 0 8 23 9 78 5 67 -6 80 -11 99 -34 13 -15
23 -32 23 -38 0 -5 9 -20 21 -33 12 -12 23 -41 26 -64 5 -50 17 -65 37 -48 11
9 15 9 18 0 3 -8 13 -7 36 5 20 10 32 12 32 6 0 -16 23 -37 36 -33 6 2 22 -1
35 -6 l24 -9 -27 -7 c-32 -8 -36 -22 -11 -32 10 -4 30 -20 46 -36 22 -23 31
-26 42 -17 17 14 10 31 -9 24 -8 -3 -17 -1 -20 5 -4 6 7 9 31 7 36 -3 43 2
118 78 72 72 161 153 212 192 10 7 31 14 47 14 27 0 28 -2 23 -33 -3 -18 -21
-66 -41 -107 -19 -41 -33 -77 -30 -79 3 -3 9 0 13 8 6 9 19 10 47 5 21 -4 39
-5 40 -3 0 4 13 -10 92 -97 46 -51 82 -110 82 -132 0 -10 9 -42 20 -72 30 -80
30 -79 -17 -129 -43 -45 -83 -106 -83 -127 0 -7 -11 -16 -25 -20 -31 -8 -135
40 -135 62 0 8 -7 14 -15 14 -8 0 -15 7 -15 15 0 8 -8 15 -17 15 -14 0 -15 2
-4 9 19 12 5 31 -22 30 -40 -2 -107 18 -107 32 0 13 -47 11 -56 -2 -3 -6 -17
-9 -30 -6 -26 5 -43 -12 -115 -108 -52 -71 -93 -133 -102 -158 -6 -16 3 -17
145 -11 102 4 161 10 179 20 56 28 128 -3 143 -61 6 -23 9 -26 18 -14 8 11 9
10 4 -5 -4 -10 -2 -24 3 -30 22 -26 -29 -165 -85 -237 -16 -20 -36 -47 -44
-60 -8 -12 -29 -39 -46 -58 -17 -20 -42 -55 -56 -79 -13 -23 -26 -40 -29 -38
-2 2 -11 -3 -19 -12 -13 -14 -12 -15 5 -8 18 7 18 5 -2 -16 -27 -29 -73 -120
-67 -130 3 -5 2 -8 -3 -7 -20 3 -34 -2 -28 -11 3 -6 -3 -23 -14 -39 -12 -16
-21 -36 -21 -45 0 -9 -4 -16 -10 -16 -5 0 -9 -3 -7 -8 2 -8 -19 -63 -55 -139
-11 -24 -16 -48 -12 -55 4 -7 4 -10 -1 -6 -10 10 -42 -59 -51 -110 -4 -20 -11
-42 -16 -49 -5 -7 -6 -18 -2 -24 4 -7 3 -9 -3 -6 -6 4 -15 -5 -22 -20 -23 -51
-8 -42 124 76 28 24 64 56 80 70 42 38 185 153 215 174 200 139 298 180 349
148 22 -14 26 -108 6 -161 -9 -25 -22 -61 -28 -80 -6 -19 -14 -37 -18 -40 -3
-3 -21 -34 -38 -70 -47 -94 -60 -117 -205 -337 -47 -73 -86 -135 -86 -138 0
-4 -8 -15 -53 -67 -30 -36 -128 -170 -187 -258 -31 -46 -177 -264 -185 -278
-5 -8 -39 -59 -74 -111 -125 -185 -141 -210 -141 -219 0 -5 -9 -17 -21 -28
-12 -10 -28 -32 -36 -48 -16 -30 -25 -43 -55 -77 -10 -10 -18 -22 -18 -25 0
-3 -23 -34 -50 -68 -124 -150 -133 -160 -241 -261 -30 -27 -16 -9 31 40 92 98
147 163 198 234 66 93 298 437 318 471 8 14 23 39 34 55 11 17 27 43 36 59 9
16 35 57 59 90 97 139 214 319 220 337 4 10 11 19 16 19 5 0 9 7 9 15 0 8 8
19 19 24 10 6 24 23 32 38 19 38 91 133 101 133 4 0 8 4 8 10 0 5 49 83 109
172 198 297 288 505 236 548 -21 17 -82 8 -147 -23 -57 -27 -233 -155 -338
-246 -136 -117 -350 -336 -362 -368 -7 -18 -18 -33 -25 -33 -7 0 -13 -9 -13
-20 0 -11 -4 -20 -10 -20 -5 0 -10 -9 -10 -20 0 -11 -4 -20 -10 -20 -5 0 -16
-15 -24 -33 -14 -33 -101 -127 -117 -127 -5 0 -9 -7 -9 -15 0 -8 -4 -15 -10
-15 -5 0 -17 -17 -25 -38 -9 -20 -21 -41 -28 -47 -25 -20 -66 -81 -83 -125
-18 -46 -45 -85 -101 -146 -18 -19 -33 -38 -33 -43 0 -4 -11 -20 -25 -35 -14
-15 -22 -32 -19 -38 4 -6 2 -8 -3 -5 -10 6 -43 -48 -43 -70 0 -14 -38 -42 -46
-35 -5 4 -2 -1 5 -10 8 -11 9 -18 3 -18 -6 0 -14 -10 -17 -22 -13 -42 -72
-155 -91 -176 -11 -12 -26 -38 -33 -59 -8 -20 -29 -53 -47 -73 -19 -19 -46
-57 -60 -85 -15 -27 -37 -64 -50 -82 -13 -17 -24 -38 -24 -46 0 -16 -69 -119
-108 -159 -26 -28 -54 -40 -33 -15 6 8 8 17 4 20 -3 4 -1 7 5 7 7 0 12 7 12
16 0 8 10 30 23 47 29 42 43 65 62 102 8 17 28 53 45 80 16 28 35 61 42 75 7
14 16 27 20 30 4 3 14 21 23 40 9 19 27 53 41 75 13 22 30 51 37 65 13 26 59
106 159 273 32 54 63 108 69 120 5 12 18 36 28 52 16 26 230 396 268 465 8 14
24 42 36 62 12 21 51 88 87 150 36 62 77 133 92 158 15 25 36 61 46 80 20 37
39 70 75 132 12 20 51 87 87 149 36 61 76 131 90 154 14 24 81 141 150 260 69
120 137 238 152 264 47 78 62 110 55 117 -4 4 -16 -1 -28 -12 -20 -18 -36 -19
-253 -16 -127 2 -241 0 -253 -5 -18 -7 -59 -60 -118 -152 -5 -9 -12 -18 -16
-21 -3 -3 -25 -34 -50 -70 -24 -36 -50 -71 -56 -78 -7 -7 -13 -17 -13 -21 0
-4 -8 -16 -18 -27 -10 -10 -44 -57 -75 -104 -32 -47 -79 -116 -105 -154 -26
-38 -51 -76 -57 -85 -5 -9 -12 -18 -15 -21 -12 -12 -120 -178 -135 -209 -24
-48 -18 -219 8 -246 17 -16 17 -18 0 -30 -26 -19 -31 1 -32 123 -1 56 -5 102
-10 102 -6 0 -36 -39 -67 -87 -32 -49 -61 -90 -65 -93 -16 -13 -59 -92 -59
-110 0 -11 -7 -20 -15 -20 -11 0 -88 -105 -140 -192 -5 -10 -22 -34 -36 -55
-15 -21 -57 -85 -94 -143 -37 -58 -90 -138 -116 -177 -27 -40 -49 -75 -49 -77
0 -3 -17 -31 -39 -63 -66 -100 -131 -202 -131 -207 0 -7 -62 -98 -77 -114 -16
-17 -16 -41 0 -69 26 -47 183 -319 209 -362 16 -25 32 -57 38 -70 6 -13 19
-35 29 -50 10 -14 21 -34 24 -43 11 -29 -16 -16 -38 19 -11 18 -24 33 -30 35
-5 2 -9 6 -8 9 1 4 -7 15 -17 24 -11 10 -20 24 -20 31 0 20 -36 5 -67 -29 -16
-18 -62 -72 -103 -122 -41 -49 -82 -97 -90 -106 -8 -9 -26 -30 -40 -46 -46
-54 -205 -227 -222 -242 -10 -9 -18 -19 -18 -23 0 -5 664 -8 1475 -8 l1475 0
0 2300 0 2300 -2300 0 -2300 0 0 -2300z m2155 1978 c-44 -29 -91 -62 -105 -75
-48 -42 -71 -61 -113 -95 -23 -18 -62 -53 -87 -78 -68 -66 -184 -169 -211
-188 -24 -15 -24 -15 1 13 31 36 120 123 120 118 0 -2 15 11 34 29 18 18 54
51 80 73 26 22 57 49 70 60 12 11 37 31 56 45 18 14 41 32 51 40 9 8 30 24 45
35 15 11 39 30 53 41 23 19 47 30 76 33 6 0 -26 -23 -70 -51z m-414 -96 c6
-15 12 -45 14 -68 4 -36 0 -44 -32 -75 -20 -19 -51 -49 -69 -67 -27 -26 -37
-31 -52 -23 -11 6 -24 6 -33 0 -42 -26 -129 4 -129 45 0 23 -16 20 -38 -9 -29
-36 -42 -31 -43 18 l-1 42 -12 -45 c-11 -41 -13 -43 -19 -20 -14 50 -9 67 22
73 30 6 62 52 60 86 0 10 -2 12 -6 3 -2 -6 -9 -10 -14 -6 -36 22 72 25 113 3
11 -6 18 -5 22 4 3 8 8 7 16 -6 11 -17 14 -15 43 18 26 30 41 38 80 42 26 3
47 10 47 15 0 17 21 -4 31 -30z m-166 -879 c-21 -26 -42 -50 -48 -52 -11 -4
-1 16 20 39 7 8 23 28 34 43 12 15 23 26 26 24 2 -3 -12 -27 -32 -54z m665
-638 c0 -7 16 -36 35 -64 19 -28 35 -59 34 -68 0 -14 -2 -15 -6 -3 -4 8 -21
36 -39 61 -18 26 -32 49 -31 51 1 2 -4 -3 -10 -11 -11 -12 -13 -7 -13 28 0 38
2 42 15 31 8 -7 15 -18 15 -25z m347 -67 c4 -61 -10 -40 -21 32 -5 35 -4 42 5
33 6 -6 14 -36 16 -65z m112 -40 l-2 -113 -8 100 c-4 55 -6 106 -4 113 11 32
15 3 14 -100z m-680 55 c0 -5 -4 -17 -9 -28 -8 -17 -8 -16 -7 8 1 15 5 27 9
27 4 0 8 -3 7 -7z m177 -50 c-18 -33 -21 -26 -6 13 6 15 13 24 16 21 3 -3 -1
-18 -10 -34z m0 -45 c-2 -7 -7 -22 -12 -33 -4 -11 -8 -26 -10 -33 -5 -24 -14
-26 -14 -3 0 12 7 35 15 51 16 30 27 40 21 18z m146 -40 c-5 -20 -6 -20 -19
-3 -18 26 -16 34 6 28 13 -3 17 -11 13 -25z m-365 -10 c-3 -8 -6 -5 -6 6 -1
11 2 17 5 13 3 -3 4 -12 1 -19z m720 -135 c-2 -21 -4 -4 -4 37 0 41 2 58 4 38
2 -21 2 -55 0 -75z m225 -275 c-7 -7 -12 -8 -12 -2 0 14 12 26 19 19 2 -3 -1
-11 -7 -17z m-42 -23 c0 -8 -61 -37 -67 -32 -3 3 8 12 24 21 29 16 43 19 43
11z m1010 -174 c0 -6 -4 -13 -10 -16 -5 -3 -10 1 -10 9 0 9 5 16 10 16 6 0 10
-4 10 -9z m-142 -49 c2 -7 -6 -12 -17 -12 -21 0 -27 11 -14 24 9 9 26 2 31
-12z m46 -27 c3 -8 1 -15 -3 -15 -5 0 -11 7 -15 15 -3 8 -1 15 3 15 5 0 11 -7
15 -15z m-2056 -350 c-3 -3 -9 2 -12 12 -6 14 -5 15 5 6 7 -7 10 -15 7 -18z
m522 -965 c6 -11 8 -20 6 -20 -3 0 -10 9 -16 20 -6 11 -8 20 -6 20 3 0 10 -9
16 -20z m495 -160 c-3 -5 -11 -10 -16 -10 -6 0 -7 5 -4 10 3 6 11 10 16 10 6
0 7 -4 4 -10z"/>
<path d="M1477 4102 c-32 -35 -20 -49 31 -36 15 4 22 14 22 30 0 29 -29 32
-53 6z"/>
<path d="M1420 4075 c0 -8 5 -15 10 -15 6 0 10 7 10 15 0 8 -4 15 -10 15 -5 0
-10 -7 -10 -15z"/>
<path d="M4071 4282 c-39 -38 -68 -72 -64 -75 3 -4 1 -7 -5 -7 -7 0 -9 -7 -5
-17 5 -12 2 -15 -10 -10 -9 3 -17 2 -17 -2 0 -17 29 -20 38 -5 5 8 17 17 28
18 10 2 19 8 19 14 0 7 10 19 23 27 12 9 22 20 22 26 0 5 12 27 26 49 15 22
24 43 21 46 -3 3 -37 -26 -76 -64z"/>
<path d="M3950 4140 c0 -5 5 -10 11 -10 5 0 7 5 4 10 -3 6 -8 10 -11 10 -2 0
-4 -4 -4 -10z"/>
<path d="M3010 4074 c-25 -14 -52 -32 -60 -40 -8 -8 -49 -41 -91 -73 -71 -55
-119 -104 -119 -121 0 -4 9 -10 21 -13 12 -3 18 -10 14 -16 -3 -7 2 -11 14
-11 15 0 19 -4 14 -17 -5 -11 -3 -14 6 -8 8 4 16 3 20 -4 8 -12 66 54 147 168
40 55 94 146 94 157 0 9 -18 2 -60 -22z"/>
<path d="M3720 4020 c0 -5 5 -10 11 -10 5 0 7 5 4 10 -3 6 -8 10 -11 10 -2 0
-4 -4 -4 -10z"/>
<path d="M3575 3970 c-18 -19 -17 -20 3 -20 15 0 22 6 22 20 0 11 -2 20 -3 20
-2 0 -12 -9 -22 -20z"/>
<path d="M3397 3951 c3 -10 0 -22 -6 -25 -6 -4 -11 -16 -11 -27 0 -11 -4 -18
-9 -15 -4 3 -27 -13 -50 -35 -28 -28 -41 -49 -41 -68 0 -20 -7 -31 -25 -39
-25 -12 -55 -7 -55 9 0 5 -13 9 -30 9 -16 0 -30 -4 -30 -10 0 -5 14 -10 30
-10 29 0 30 -1 30 -50 0 -49 -1 -50 -30 -50 -23 0 -30 4 -30 20 0 11 -4 20 -9
20 -12 0 -18 -27 -13 -62 4 -23 9 -27 56 -32 76 -10 129 -8 137 5 5 8 8 8 11
-1 2 -8 12 -10 26 -5 19 5 21 9 11 22 -11 12 -10 14 2 11 20 -4 113 87 104
101 -3 7 0 8 10 5 11 -5 14 -2 9 12 -4 11 -4 16 1 12 7 -7 17 1 44 35 12 16
12 17 -5 10 -17 -6 -17 -5 -5 10 12 15 11 17 -13 17 -14 0 -26 5 -26 11 0 5
-13 15 -29 20 -32 11 -49 57 -25 66 19 7 18 39 -2 47 -26 10 -32 7 -27 -13z"/>
<path d="M3528 3953 c7 -3 16 -2 19 1 4 3 -2 6 -13 5 -11 0 -14 -3 -6 -6z"/>
<path d="M3573 3923 c-20 -8 -15 -23 7 -23 11 0 20 7 20 15 0 15 -6 17 -27 8z"/>
<path d="M3596 3873 c-6 -14 -5 -15 5 -6 7 7 10 15 7 18 -3 3 -9 -2 -12 -12z"/>
<path d="M3530 3849 c0 -5 5 -7 10 -4 6 3 10 8 10 11 0 2 -4 4 -10 4 -5 0 -10
-5 -10 -11z"/>
<path d="M2950 3830 c0 -5 5 -10 10 -10 6 0 10 5 10 10 0 6 -4 10 -10 10 -5 0
-10 -4 -10 -10z"/>
<path d="M4056 3804 c-9 -22 -8 -24 9 -24 8 0 15 9 15 20 0 24 -15 27 -24 4z"/>
<path d="M3760 3779 c9 -16 14 -18 26 -8 8 6 14 16 14 21 0 6 -7 5 -15 -2 -10
-9 -15 -9 -15 -1 0 6 -5 11 -10 11 -7 0 -7 -7 0 -21z"/>
<path d="M2920 3781 c0 -5 5 -13 10 -16 6 -3 10 -2 10 4 0 5 -4 13 -10 16 -5
3 -10 2 -10 -4z"/>
<path d="M3620 3779 c0 -5 -6 -9 -14 -9 -8 0 -50 -41 -93 -91 -75 -86 -98
-120 -74 -105 6 4 11 2 11 -4 0 -8 9 -10 24 -6 14 3 28 1 31 -4 4 -6 27 -20
52 -32 l45 -21 37 43 c20 24 41 52 46 62 6 10 27 45 48 78 41 65 40 85 -3 77
-15 -3 -32 -1 -39 6 -14 14 -71 19 -71 6z"/>
<path d="M2365 3770 c-3 -6 1 -13 10 -16 19 -8 30 0 20 15 -8 14 -22 14 -30 1z"/>
<path d="M3155 3710 c4 -6 11 -8 16 -5 14 9 11 15 -7 15 -8 0 -12 -5 -9 -10z"/>
<path d="M2579 3368 c-19 -15 -218 -262 -243 -299 -16 -26 -16 -28 10 -75 43
-77 48 -84 66 -90 9 -3 20 -15 24 -26 6 -21 7 -21 20 -3 8 10 14 27 14 37 0
10 8 23 18 29 9 6 44 43 76 82 94 114 215 205 274 207 67 1 84 -58 32 -107
-38 -35 -38 -50 0 -71 16 -9 34 -29 39 -43 5 -15 7 -133 5 -263 -2 -134 0
-236 5 -236 9 0 61 64 61 75 0 4 13 24 28 44 16 20 68 95 117 166 170 248 185
270 235 340 28 39 53 78 57 88 3 9 9 17 13 17 8 0 90 121 90 133 0 4 -208 7
-463 7 -356 0 -467 -3 -478 -12z"/>
<path d="M2060 3196 c-14 -8 -35 -20 -47 -25 -12 -6 -37 -24 -54 -41 -31 -29
-32 -31 -14 -50 10 -11 20 -18 23 -15 8 8 80 -37 86 -54 3 -9 11 -24 18 -33
10 -14 9 -20 -5 -36 -15 -16 -17 -35 -15 -103 3 -96 -6 -101 104 46 42 55 79
102 83 105 4 3 16 19 26 36 18 31 18 32 -8 65 -77 100 -145 136 -197 105z"/>
<path d="M3815 2809 c-4 -6 -5 -12 -2 -15 2 -3 7 2 10 11 7 17 1 20 -8 4z"/>
<path d="M969 2533 c-19 -21 -57 -67 -84 -103 -27 -36 -58 -74 -67 -85 -39
-43 -172 -212 -201 -255 -17 -25 -36 -50 -42 -56 -5 -6 -17 -22 -25 -34 -8
-13 -27 -37 -41 -54 -35 -41 -83 -126 -72 -126 8 0 117 84 156 120 9 8 22 20
29 25 24 18 191 168 253 226 179 169 230 223 213 226 -10 3 -15 10 -11 19 3 8
1 14 -4 14 -5 0 -15 16 -22 35 -7 19 -17 35 -22 35 -6 0 -8 4 -5 9 3 4 0 16
-7 25 -12 16 -16 15 -48 -21z"/>
<path d="M1406 1805 c-31 -41 -56 -77 -56 -80 0 -3 -19 -33 -42 -68 -24 -34
-49 -71 -55 -82 -7 -11 -41 -64 -75 -118 -35 -55 -72 -115 -84 -135 -28 -49
-55 -97 -91 -157 -57 -96 -119 -236 -128 -287 -6 -31 -4 -38 8 -38 49 0 249
180 472 425 60 66 114 125 120 130 6 6 31 35 55 65 24 30 51 62 61 70 20 18
58 77 44 68 -6 -4 -17 7 -24 23 -7 16 -16 27 -21 24 -4 -3 -6 5 -2 17 3 14 2
19 -6 14 -8 -5 -12 0 -12 13 0 11 -6 26 -14 33 -12 13 -49 76 -51 88 -2 9 -35
70 -39 70 -2 0 -29 -34 -60 -75z"/>
<path d="M1911 893 c-28 -43 -55 -83 -60 -89 -5 -6 -19 -29 -30 -50 -12 -21
-30 -52 -41 -69 -11 -16 -26 -43 -35 -60 -8 -16 -40 -70 -70 -120 -30 -49 -62
-103 -70 -120 -8 -16 -25 -48 -39 -70 -13 -22 -56 -102 -95 -178 l-70 -137
106 0 106 0 66 69 c83 87 187 203 224 250 16 20 32 38 36 41 12 9 157 184 189
228 27 37 29 47 20 68 -6 13 -15 24 -19 24 -4 0 -10 12 -14 27 -5 21 -8 24
-16 12 -7 -12 -9 -12 -9 2 0 22 -67 149 -74 141 -3 -3 -6 3 -6 14 0 10 -9 30
-19 43 -10 14 -17 31 -14 38 3 7 0 13 -5 13 -6 0 -33 -35 -61 -77z"/>
</g>
</svg>
